Coordinates
version=1
nRows=19
nColumns=24
inDegrees=yes

Units are S.I. units (second, meters, Newtons, ...)
Angles are in degrees.

endheader
time	pelvis_tilt	pelvis_list	pelvis_rotation	pelvis_tx	pelvis_ty	pelvis_tz	hip_flexion_r	hip_adduction_r	hip_rotation_r	knee_angle_r	ankle_angle_r	subtalar_angle_r	mtp_angle_r	hip_flexion_l	hip_adduction_l	hip_rotation_l	knee_angle_l	ankle_angle_l	subtalar_angle_l	mtp_angle_l	lumbar_extension	lumbar_bending	lumbar_rotation
      0.81233333	     -1.93638629	      1.49076230	      1.18273339	     -0.03746680	      1.05057915	      0.33320663	    -14.19705464	      1.46276282	     -4.99322862	     -7.67532574	     17.18799597	      2.54891165	      5.38937958	     24.78117001	      1.99732747	     -1.36676559	     -0.95731345	      7.11484980	      7.15968880	      5.75936986	    -15.88899997	      2.60779010	      2.14770405
      0.81650000	     -1.88234601	      1.53664479	      1.10019509	     -0.03143160	      1.04971447	      0.33314159	    -14.42246034	      1.35436570	     -5.13796698	     -8.07675614	     17.35917609	      2.96472002	      5.51957125	     24.82549097	      2.10168908	     -1.37286407	     -1.36415574	      7.08032112	      7.01021423	      5.78447570	    -15.91974872	      2.42368271	      2.20170658
      0.82066667	     -1.86925083	      1.56169359	      1.03349344	     -0.02536070	      1.04881316	      0.33308865	    -14.64345479	      1.28835891	     -5.07610699	     -8.38894706	     17.36166104	      3.00458344	      5.54189520	     24.93613846	      2.18671981	     -1.36496709	     -1.87969697	      7.02247156	      6.87248856	      5.78883682	    -15.90819317	      2.28555994	      2.19294739
      0.82483333	     -1.83405738	      1.61553271	      0.95279489	     -0.01923631	      1.04796945	      0.33303503	    -14.83421208	      1.16711403	     -5.21638850	     -8.82802480	     17.50515160	      3.41482933	      5.70165267	     25.00695775	      2.29513047	     -1.34529716	     -2.42545054	      6.92237401	      6.67592978	      5.83243936	    -15.89367020	      2.08127510	      2.24543331
      0.82900000	     -1.80494671	      1.66984181	      0.87626176	     -0.01308618	      1.04716496	      0.33299829	    -15.02529584	      1.05176693	     -5.27875919	     -9.24943979	     17.54201114	      3.67036681	      5.91320628	     25.08721779	      2.40220858	     -1.29680227	     -3.03158743	      6.77835661	      6.45874388	      5.89725269	    -15.88713315	      1.88051391	      2.25544808
      0.83316667	     -1.78991673	      1.71220958	      0.80244675	     -0.00692176	      1.04637204	      0.33294072	    -15.18197330	      0.94449335	     -5.35541842	     -9.70810748	     17.52720857	      3.91897394	      6.25408320	     25.18701002	      2.49746803	     -1.21901107	     -3.69115023	      6.58637192	      6.22416806	      6.00778724	    -15.86871233	      1.70346744	      2.27585782
      0.83733333	     -1.75811828	      1.76338303	      0.73215073	     -0.00069862	      1.04564718	      0.33292824	    -15.38849344	      0.84326230	     -5.29101634	    -10.10065405	     17.43057853	      3.94381256	      6.28954426	     25.28053884	      2.59397946	     -1.18546603	     -4.42498797	      6.40258016	      6.07264064	      6.01670116	    -15.86260233	      1.51157591	      2.26036982
      0.84150000	     -1.76700507	      1.84295414	      0.64142888	      0.00559671	      1.04490086	      0.33291325	    -15.48694766	      0.68058968	     -5.40877524	    -10.63960372	     17.42839569	      4.30431377	      6.52124808	     25.38561865	      2.71529199	     -1.07844727	     -5.13575669	      6.11976703	      5.74845011	      6.08643211	    -15.78075878	      1.23850762	      2.29887466
      0.84566667	     -1.71733988	      1.88805293	      0.57810910	      0.01184806	      1.04428902	      0.33285823	    -15.68016107	      0.57832339	     -5.37713773	    -11.09590592	     17.26990418	      4.34687429	      6.56723153	     25.46928857	      2.80457918	     -1.02321720	     -5.95460130	      5.85953478	      5.58686792	      6.09666017	    -15.80124672	      1.07013931	      2.28677742
      0.84983333	     -1.71846856	      1.96224295	      0.51418964	      0.01818077	      1.04362498	      0.33274534	    -15.74989817	      0.40975719	     -5.60060175	    -11.71393817	     17.25834401	      4.84598624	      7.00234403	     25.56395797	      2.93523718	     -0.80397497	     -6.71435699	      5.46759986	      5.09573203	      6.21356018	    -15.71581518	      0.83669100	      2.32016413
      0.85400000	     -1.66140603	      2.04592273	      0.42038356	      0.02451820	      1.04314199	      0.33273716	    -15.90442695	      0.24357289	     -5.60052007	    -12.25925619	     16.96506518	      4.91960364	     10.76582856	     25.59016379	      3.05395051	     -0.63807217	     -7.48618369	      5.05873010	      4.65374131	      7.19986438	    -15.73016551	      0.57865048	      2.24592878
      0.85816667	     -1.67535325	      2.10149461	      0.37297561	      0.03090028	      1.04255312	      0.33259728	    -15.95397134	      0.10300775	     -5.72638180	    -12.88052225	     16.76446880	      5.18930088	     10.84126798	     25.74589960	      3.15457107	     -0.54593556	     -8.38838542	      4.73215072	      4.47760357	      7.20254720	    -15.63765986	      0.36465093	      2.30266190
      0.86233333	     -1.62605819	      2.17913216	      0.30595086	      0.03727608	      1.04213848	      0.33247599	    -16.04668897	     -0.07347021	     -5.85440880	    -13.54539177	     16.53386226	      5.50940014	     11.15005202	     25.80051815	      3.27564002	     -0.36928553	     -9.24048092	      4.35208690	      4.08615778	      7.21404092	    -15.64056302	      0.12960971	      2.28925941
      0.86650000	     -1.63415796	      2.24877771	      0.24381504	      0.04370522	      1.04167405	      0.33234114	    -16.06010991	     -0.24192384	     -5.94714591	    -14.24758769	     16.28245829	      5.74040870	     11.35153467	     25.93634870	      3.38097203	     -0.25993643	    -10.14990354	      3.98081693	      3.80391200	      7.21210984	    -15.54899077	     -0.10600597	      2.29880883
      0.87066667	     -1.59833280	      2.33033256	      0.18324057	      0.05013148	      1.04133742	      0.33216772	    -16.09109701	     -0.43606980	     -6.09816207	    -15.00579063	     15.98905400	      6.06336633	     11.67626186	     26.00950983	      3.50261977	     -0.10656174	    -11.03910553	      3.60773301	      3.44653933	      7.20409000	    -15.52454642	     -0.35021108	      2.28856117
      0.87483333	     -1.48523783	      2.42998118	      0.13724402	      0.05655779	      1.04120523	      0.33195943	    -16.19888444	     -0.64889853	     -6.26527046	    -15.76385366	     15.55317787	      6.31099552	     13.79445419	     25.97065155	      3.65461668	      0.12355866	    -11.87448046	      3.18751339	      2.99355584	      7.12553653	    -15.61221471	     -0.61171960	      2.23038533
      0.87900000	     -1.52367799	      2.47721989	      0.05911808	      0.06306754	      1.04086796	      0.33179716	    -16.10998899	     -0.81367466	     -6.29559273	    -16.58185485	     15.09440843	      6.50474692	     13.91097596	     26.14944165	      3.71410339	      0.13289286	    -12.85251434	      2.95781281	      2.86887232	      7.11301509	    -15.46731899	     -0.82286074	      2.24691962
      0.88316667	     -1.41208972	      2.58212578	      0.01198617	      0.06951688	      1.04082728	      0.33152888	    -16.14844978	     -1.05704409	     -6.51775989	    -17.47235207	     14.69306641	      6.88798230	     15.34302190	     26.11650806	      3.86572531	      0.29964823	    -13.72005478	      2.60893154	      2.45715191	      6.95745666	    -15.54926847	     -1.08600562	      2.21768736
      0.88733333	     -1.44632148	      2.62880019	     -0.05325061	      0.07605353	      1.04061028	      0.33129733	    -16.00497720	     -1.23543332	     -6.58132225	    -18.39686038	     14.13909522	      7.07846031	     15.48146058	     26.26804086	      3.92864119	      0.33066813	    -14.66851391	      2.43581372	      2.35771992	      6.93620983	    -15.41034156	     -1.28942220	      2.22561475
